# Blender v2.77 (sub 0) OBJ File: ''
# www.blender.org
mtllib Spawn.mtl
o Cube
v 1.000000 -1.000000 -1.000000
v 1.000000 -1.000000 1.000000
v -1.000000 -1.000000 1.000000
v -1.000000 -1.000000 -1.000000
v 1.000000 -0.032932 -0.999999
v 0.999999 -0.032932 1.000001
v -1.000000 -0.032932 1.000000
v -1.000000 -0.032932 -1.000000
v 1.319014 -0.032932 -1.319013
v 1.319013 -0.032932 1.319014
v -1.319014 -0.032932 1.319013
v -1.319013 -0.032932 -1.319014
v 0.000000 0.818958 -1.319013
v -0.000001 0.818958 1.319013
v 0.931767 0.217172 -0.544520
v 0.931767 0.217172 0.544521
v 0.387247 0.568853 -0.544520
v 0.387246 0.568853 0.544521
v 0.931767 0.928766 0.544521
v 0.387246 0.928766 0.544521
v 0.387247 0.928766 -0.544520
v 0.931767 0.928766 -0.544520
v 0.804480 0.928766 0.346435
v 0.514533 0.928766 0.346435
v 0.514534 0.928766 -0.346434
v 0.804480 0.928766 -0.346434
v 0.804480 0.534631 0.346435
v 0.514533 0.534631 0.346435
v 0.514534 0.534631 -0.346434
v 0.804480 0.534631 -0.346434
v 0.780066 0.083095 -1.319013
v -0.780066 0.083095 -1.319014
v 0.780065 0.083095 1.319014
v -0.780066 0.083095 1.319013
v -0.000000 0.586903 1.319014
v 0.000000 0.586903 -1.319013
v 0.780066 0.083095 -1.104833
v -0.780066 0.083095 -1.104834
v 0.780065 0.083095 1.104834
v -0.780066 0.083095 1.104833
v -0.000000 0.586903 1.104834
v 0.000000 0.586903 -1.104834
v 0.678524 -0.844555 -1.000000
v -0.678523 -0.844555 -1.000000
v 0.678524 -0.188377 -1.000000
v 0.678524 -0.844555 1.000000
v -0.678524 -0.844555 1.000000
v 0.678523 -0.188377 1.000000
v -0.678524 -0.188377 1.000000
v -0.678524 -0.188377 -1.000000
v 1.000000 -0.860054 -0.710576
v 1.000000 -0.860054 0.710576
v 1.000000 -0.172879 -0.710575
v 1.000000 -0.172879 0.710576
v -1.000000 -0.860054 0.710576
v -1.000000 -0.860054 -0.710576
v -1.000000 -0.172879 0.710576
v -1.000000 -0.172879 -0.710576
v 0.678524 -0.844555 -0.858971
v -0.678523 -0.844555 -0.858971
v 0.678524 -0.188377 -0.858971
v 0.678524 -0.844555 0.858971
v -0.678524 -0.844555 0.858971
v 0.678523 -0.188377 0.858971
v -0.678524 -0.188377 0.858971
v -0.678524 -0.188377 -0.858971
v 0.858971 -0.860054 -0.710576
v 0.858971 -0.860054 0.710576
v 0.858971 -0.172879 -0.710575
v 0.858971 -0.172879 0.710576
v -0.858971 -0.860054 0.710576
v -0.858971 -0.860054 -0.710576
v -0.858971 -0.172879 0.710576
v -0.858971 -0.172879 -0.710576
v 1.000000 -1.000000 -0.500000
v 1.000000 -1.000000 0.000000
v 1.000000 -1.000000 0.500000
v -1.000000 -1.000000 0.500000
v -1.000000 -1.000000 -0.000000
v -1.000000 -1.000000 -0.500000
v 1.000000 -0.032932 -0.499999
v 1.000000 -0.032932 0.000001
v 1.000000 -0.032932 0.500001
v -1.000000 -0.032932 0.500000
v -1.000000 -0.032932 -0.000000
v -1.000000 -0.032932 -0.500000
v 1.319014 -0.032932 -0.659506
v 1.319013 -0.032932 0.000001
v 1.319013 -0.032932 0.659507
v -1.319014 -0.032932 0.659506
v -1.319014 -0.032932 -0.000000
v -1.319013 -0.032932 -0.659507
v 0.000000 0.818958 -0.659506
v -0.000000 0.818958 0.000000
v -0.000000 0.818958 0.659507
v 0.387246 0.568853 -0.272260
v 0.387246 0.568853 0.000000
v 0.387246 0.568853 0.272261
v 0.931767 0.217172 -0.272260
v 0.931767 0.217172 0.000001
v 0.931767 0.217172 0.272261
v 0.387246 0.928766 -0.272260
v 0.387246 0.928766 0.000000
v 0.387246 0.928766 0.272261
v 0.931767 0.928766 -0.272260
v 0.931767 0.928766 0.000001
v 0.931767 0.928766 0.272261
v 0.514533 0.928766 -0.173217
v 0.514533 0.928766 0.000000
v 0.514533 0.928766 0.173218
v 0.804480 0.928766 -0.173217
v 0.804480 0.928766 0.000000
v 0.804480 0.928766 0.173218
v 0.514533 0.534631 -0.173217
v 0.514533 0.534631 0.000000
v 0.514533 0.534631 0.173218
v 0.804480 0.534631 -0.173217
v 0.804480 0.534631 0.000000
v 0.804480 0.534631 0.173218
v 1.000000 -0.860054 -0.355288
v 1.000000 -0.860054 0.000000
v 1.000000 -0.860054 0.355288
v -1.000000 -0.860054 0.355288
v -1.000000 -0.860054 -0.000000
v -1.000000 -0.860054 -0.355288
v 1.000000 -0.172879 -0.355287
v 1.000000 -0.172879 0.000001
v 1.000000 -0.172879 0.355288
v -1.000000 -0.172879 0.355288
v -1.000000 -0.172879 -0.000000
v -1.000000 -0.172879 -0.355288
v 0.858971 -0.860054 -0.355288
v 0.858971 -0.860054 0.000000
v 0.858971 -0.860054 0.355288
v -0.858971 -0.860054 0.355288
v -0.858971 -0.860054 -0.000000
v -0.858971 -0.860054 -0.355288
v 0.858971 -0.172879 -0.355288
v 0.858971 -0.172879 0.000000
v 0.858971 -0.172879 0.355288
v -0.858971 -0.172879 0.355288
v -0.858971 -0.172879 -0.000000
v -0.858971 -0.172879 -0.355288
v 0.500000 -1.000000 -1.000000
v 0.000000 -1.000000 -1.000000
v -0.500000 -1.000000 -1.000000
v 0.500000 -1.000000 1.000000
v -0.000000 -1.000000 1.000000
v -0.500000 -1.000000 1.000000
v 0.500000 -0.032932 -1.000000
v 0.000000 -0.032932 -1.000000
v -0.500000 -0.032932 -1.000000
v 0.499999 -0.032932 1.000000
v -0.000001 -0.032932 1.000000
v -0.500000 -0.032932 1.000000
v 0.659507 -0.032932 -1.319013
v 0.000000 -0.032932 -1.319013
v -0.659506 -0.032932 -1.319013
v 0.659506 -0.032932 1.319014
v -0.000001 -0.032932 1.319013
v -0.659507 -0.032932 1.319013
v 0.390033 0.083095 -1.319013
v 0.000000 0.083095 -1.319013
v -0.390033 0.083095 -1.319013
v 0.390033 0.083095 1.319014
v -0.000000 0.083095 1.319013
v -0.390033 0.083095 1.319013
v 0.390033 0.083095 -1.104833
v 0.000000 0.083095 -1.104834
v -0.390033 0.083095 -1.104834
v 0.390033 0.083095 1.104834
v -0.000000 0.083095 1.104834
v -0.390033 0.083095 1.104834
v 0.339262 -0.844555 -1.000000
v 0.000000 -0.844555 -1.000000
v -0.339262 -0.844555 -1.000000
v 0.339262 -0.844555 1.000000
v -0.000000 -0.844555 1.000000
v -0.339262 -0.844555 1.000000
v 0.339262 -0.188377 -1.000000
v 0.000000 -0.188377 -1.000000
v -0.339262 -0.188377 -1.000000
v 0.339261 -0.188377 1.000000
v -0.000000 -0.188377 1.000000
v -0.339262 -0.188377 1.000000
v 0.339262 -0.844555 -0.858971
v 0.000000 -0.844555 -0.858971
v -0.339262 -0.844555 -0.858971
v 0.339262 -0.844555 0.858971
v -0.000000 -0.844555 0.858971
v -0.339262 -0.844555 0.858971
v 0.339262 -0.188377 -0.858971
v 0.000000 -0.188377 -0.858971
v -0.339262 -0.188377 -0.858971
v 0.339261 -0.188377 0.858971
v -0.000000 -0.188377 0.858971
v -0.339262 -0.188377 0.858971
v 0.500000 -1.000000 -0.500000
v 0.000000 -1.000000 -0.500000
v -0.500000 -1.000000 -0.500000
v 0.500000 -1.000000 -0.000000
v 0.000000 -1.000000 -0.000000
v -0.500000 -1.000000 -0.000000
v 0.500000 -1.000000 0.500000
v 0.000000 -1.000000 0.500000
v -0.500000 -1.000000 0.500000
v 1.085892 -1.282484 0.414108
v 1.085892 -1.282484 1.085892
v -0.414107 -1.282484 -1.085893
v -1.085892 -1.282484 -1.085893
v -0.414108 -1.282484 1.085892
v -1.085893 -1.282484 1.085892
v -1.085892 -1.282484 -0.414108
v 1.085892 -1.282484 -1.085892
v 1.085892 -1.282484 -0.414107
v -1.085892 -1.282484 0.414107
v -0.414107 -1.282484 -0.414108
v -0.414108 -1.282484 0.414107
v 0.414108 -1.282484 -1.085892
v 0.414108 -1.282484 1.085892
v 0.414108 -1.282484 -0.414108
v 0.414108 -1.282484 0.414107
v 0.931767 0.318829 -0.544520
v 0.931767 0.420485 -0.544520
v 0.931767 0.522141 -0.544520
v 0.931767 0.623797 -0.544520
v 0.931767 0.725454 -0.544520
v 0.931767 0.827110 -0.544520
v 0.931767 0.827110 0.544521
v 0.931767 0.725454 0.544521
v 0.931767 0.623797 0.544521
v 0.931767 0.522141 0.544521
v 0.931767 0.420485 0.544521
v 0.931767 0.318829 0.544521
v 0.387246 0.877350 0.544521
v 0.387246 0.825934 0.544521
v 0.387246 0.774518 0.544521
v 0.387246 0.723101 0.544521
v 0.387246 0.671685 0.544521
v 0.387246 0.620269 0.544521
v 0.387247 0.620269 -0.544520
v 0.387247 0.671685 -0.544520
v 0.387247 0.723101 -0.544520
v 0.387247 0.774518 -0.544520
v 0.387247 0.825934 -0.544520
v 0.387247 0.877350 -0.544520
v 0.387246 0.620269 -0.272260
v 0.387246 0.671685 -0.272260
v 0.387246 0.723101 -0.272260
v 0.387246 0.774518 -0.272260
v 0.387246 0.825934 -0.272260
v 0.387246 0.877350 -0.272260
v 0.387246 0.620269 0.000000
v 0.387246 0.671685 0.000000
v 0.387246 0.723101 0.000000
v 0.387246 0.774518 0.000000
v 0.387246 0.825934 0.000000
v 0.387246 0.877350 0.000000
v 0.387246 0.620269 0.272261
v 0.387246 0.671685 0.272261
v 0.387246 0.723101 0.272261
v 0.387246 0.774518 0.272261
v 0.387246 0.825934 0.272261
v 0.387246 0.877350 0.272261
v 0.931767 0.318829 0.272261
v 0.931767 0.420485 0.272261
v 0.931767 0.522141 0.272261
v 0.931767 0.623797 0.272261
v 0.931767 0.725454 0.272261
v 0.931767 0.827110 0.272261
v 0.931767 0.318829 0.000001
v 0.931767 0.420485 0.000001
v 0.931767 0.522141 0.000001
v 0.931767 0.623797 0.000001
v 0.931767 0.725454 0.000001
v 0.931767 0.827110 0.000001
v 0.931767 0.318829 -0.272260
v 0.931767 0.420485 -0.272260
v 0.931767 0.522141 -0.272260
v 0.931767 0.623797 -0.272260
v 0.931767 0.725454 -0.272260
v 0.931767 0.827110 -0.272260
v 0.911932 0.332597 -0.504849
v 0.911932 0.426847 -0.504849
v 0.911932 0.532250 -0.504849
v 0.911932 0.626500 -0.504849
v 0.911932 0.731902 -0.504849
v 0.911932 0.826152 -0.504849
v 0.911931 0.826152 0.504850
v 0.911931 0.731902 0.504850
v 0.911931 0.626500 0.504850
v 0.911931 0.532250 0.504850
v 0.911931 0.426847 0.504850
v 0.911931 0.332597 0.504850
v 0.407081 0.872732 0.504850
v 0.407081 0.825062 0.504850
v 0.407081 0.766239 0.504850
v 0.407081 0.718569 0.504850
v 0.407081 0.659747 0.504850
v 0.407081 0.612077 0.504850
v 0.407082 0.612077 -0.504849
v 0.407082 0.659747 -0.504849
v 0.407082 0.718569 -0.504849
v 0.407082 0.766239 -0.504849
v 0.407082 0.825062 -0.504849
v 0.407082 0.872732 -0.504849
v 0.407082 0.612077 -0.252425
v 0.407082 0.659747 -0.252425
v 0.407082 0.718569 -0.252425
v 0.407082 0.766239 -0.252425
v 0.407082 0.825062 -0.252425
v 0.407082 0.872732 -0.252425
v 0.407082 0.612077 0.000000
v 0.407082 0.659747 0.000000
v 0.407082 0.718569 0.000000
v 0.407082 0.766239 0.000000
v 0.407082 0.825062 0.000000
v 0.407082 0.872732 0.000000
v 0.407082 0.612077 0.252425
v 0.407082 0.659747 0.252425
v 0.407082 0.718569 0.252425
v 0.407082 0.766239 0.252425
v 0.407082 0.825062 0.252425
v 0.407082 0.872732 0.252425
v 0.911931 0.332597 0.252425
v 0.911931 0.426847 0.252425
v 0.911931 0.532250 0.252425
v 0.911931 0.626500 0.252425
v 0.911931 0.731902 0.252425
v 0.911931 0.826152 0.252425
v 0.911932 0.332597 0.000001
v 0.911932 0.426847 0.000001
v 0.911932 0.532250 0.000001
v 0.911932 0.626500 0.000001
v 0.911932 0.731902 0.000001
v 0.911932 0.826152 0.000001
v 0.911932 0.332597 -0.252424
v 0.911932 0.426847 -0.252424
v 0.911932 0.532250 -0.252424
v 0.911932 0.626500 -0.252424
v 0.911932 0.731902 -0.252424
v 0.911932 0.826152 -0.252424
vn 0.9568 0.2909 0.0000
vn 0.0000 -1.0000 0.0000
vn -1.0000 -0.0000 -0.0000
vn -0.0000 -0.0000 1.0000
vn 1.0000 -0.0000 0.0000
vn 0.0000 0.0000 -1.0000
vn 0.5425 0.8400 0.0000
vn -0.5425 0.8400 -0.0000
vn 0.0000 1.0000 -0.0000
vn -0.5425 -0.8400 0.0000
vn 0.5425 -0.8400 0.0000
vn -0.9568 0.2909 -0.0000
vn -0.0000 0.2909 0.9568
vn 0.0000 0.2909 -0.9568
vn -0.3054 -0.9522 -0.0000
vn 0.4541 0.8910 0.0000
vn 0.0439 0.9990 0.0000
vn 0.5702 0.8215 0.0000
vn -0.3852 -0.9229 -0.0000
vn -0.0917 -0.9933 0.0698
vn 0.2228 0.9749 0.0000
vn 0.1810 0.9811 0.0689
vn -0.5157 -0.8568 -0.0000
vn -0.2662 -0.9616 0.0676
vn 0.3818 0.9243 0.0000
vn 0.3455 0.9361 0.0658
vn -0.2268 -0.9740 -0.0000
vn -0.4180 -0.9062 0.0637
vn 0.4834 0.8732 0.0614
vn -0.0917 -0.9933 -0.0698
vn 0.1810 0.9811 -0.0689
vn -0.2662 -0.9616 -0.0676
vn 0.3817 0.9243 0.0000
vn 0.3455 0.9361 -0.0658
vn 0.0482 -0.9988 0.0000
vn -0.4180 -0.9062 -0.0637
vn 0.3092 0.9510 -0.0000
vn 0.4834 0.8732 -0.0614
vn -0.1350 -0.9908 -0.0000
usemtl Material
s off
f 77//1 2//1 208//1 207//1
f 153//2 6//2 10//2 159//2
f 3//3 7//3 57//3 55//3
f 155//4 7//4 49//4 185//4
f 83//5 6//5 54//5 128//5
f 146//6 4//6 44//6 176//6
f 14//4 11//4 34//4 35//4
f 81//2 5//2 9//2 87//2
f 84//2 7//2 11//2 90//2
f 152//2 8//2 12//2 158//2
f 282//5 228//5 22//5 105//5
f 87//7 9//7 15//7 99//7
f 90//8 11//8 14//8 95//8
f 13//6 9//6 31//6 36//6
f 9//7 13//7 17//7 15//7
f 14//7 10//7 16//7 18//7
f 95//7 14//7 18//7 98//7
f 22//9 21//9 25//9 26//9
f 235//4 229//4 19//4 20//4
f 228//6 246//6 21//6 22//6
f 264//3 235//3 20//3 104//3
f 111//3 26//3 30//3 117//3
f 104//9 20//9 24//9 110//9
f 105//9 22//9 26//9 111//9
f 20//9 19//9 23//9 24//9
f 117//9 30//9 29//9 114//9
f 24//6 23//6 27//6 28//6
f 26//4 25//4 29//4 30//4
f 110//5 24//5 28//5 116//5
f 33//10 35//10 41//10 39//10
f 35//11 34//11 40//11 41//11
f 158//6 12//6 32//6 164//6
f 10//4 14//4 35//4 33//4
f 12//6 13//6 36//6 32//6
f 159//4 10//4 33//4 165//4
f 40//4 173//4 172//4 171//4 39//4 41//4
f 37//6 168//6 169//6 170//6 38//6 42//6
f 164//9 32//9 38//9 170//9
f 32//11 36//11 42//11 38//11
f 36//10 31//10 37//10 42//10
f 165//9 33//9 39//9 171//9
f 131//2 58//2 74//2 143//2
f 176//9 44//9 60//9 188//9
f 7//4 3//4 47//4 49//4
f 2//4 6//4 48//4 46//4
f 5//6 1//6 43//6 45//6
f 150//6 5//6 45//6 180//6
f 4//6 8//6 50//6 44//6
f 147//4 2//4 46//4 177//4
f 128//2 54//2 70//2 140//2
f 185//2 49//2 65//2 197//2
f 6//5 2//5 52//5 54//5
f 1//5 5//5 53//5 51//5
f 86//3 8//3 58//3 131//3
f 75//5 1//5 51//5 120//5
f 8//3 4//3 56//3 58//3
f 78//3 3//3 55//3 123//3
f 191//4 197//4 65//4 63//4
f 194//6 188//6 60//6 66//6
f 134//5 140//5 70//5 68//5
f 137//3 143//3 74//3 72//3
f 45//3 43//3 59//3 61//3
f 120//9 51//9 67//9 132//9
f 177//9 46//9 62//9 189//9
f 51//4 53//4 69//4 67//4
f 46//3 48//3 64//3 62//3
f 54//6 52//6 68//6 70//6
f 49//5 47//5 63//5 65//5
f 123//9 55//9 71//9 135//9
f 44//5 50//5 66//5 60//5
f 55//6 57//6 73//6 71//6
f 180//2 45//2 61//2 192//2
f 58//4 56//4 72//4 74//4
f 56//9 125//9 137//9 72//9
f 125//9 124//9 136//9 137//9
f 124//9 123//9 135//9 136//9
f 52//9 122//9 134//9 68//9
f 122//9 121//9 133//9 134//9
f 121//9 120//9 132//9 133//9
f 71//3 73//3 141//3 135//3
f 135//3 141//3 142//3 136//3
f 136//3 142//3 143//3 137//3
f 67//5 69//5 138//5 132//5
f 132//5 138//5 139//5 133//5
f 133//5 139//5 140//5 134//5
f 4//3 80//3 125//3 56//3
f 80//3 79//3 124//3 125//3
f 79//3 78//3 123//3 124//3
f 2//5 77//5 122//5 52//5
f 77//5 76//5 121//5 122//5
f 76//5 75//5 120//5 121//5
f 7//3 84//3 129//3 57//3
f 84//3 85//3 130//3 129//3
f 85//3 86//3 131//3 130//3
f 53//2 126//2 138//2 69//2
f 126//2 127//2 139//2 138//2
f 127//2 128//2 140//2 139//2
f 57//2 129//2 141//2 73//2
f 129//2 130//2 142//2 141//2
f 130//2 131//2 143//2 142//2
f 25//5 108//5 114//5 29//5
f 108//5 109//5 115//5 114//5
f 109//5 110//5 116//5 115//5
f 27//9 119//9 116//9 28//9
f 119//9 118//9 115//9 116//9
f 118//9 117//9 114//9 115//9
f 19//9 107//9 113//9 23//9
f 107//9 106//9 112//9 113//9
f 106//9 105//9 111//9 112//9
f 21//9 102//9 108//9 25//9
f 102//9 103//9 109//9 108//9
f 103//9 104//9 110//9 109//9
f 23//3 113//3 119//3 27//3
f 113//3 112//3 118//3 119//3
f 112//3 111//3 117//3 118//3
f 246//3 252//3 102//3 21//3
f 252//3 258//3 103//3 102//3
f 258//3 264//3 104//3 103//3
f 13//7 93//7 96//7 17//7
f 93//7 94//7 97//7 96//7
f 94//7 95//7 98//7 97//7
f 12//8 92//8 93//8 13//8
f 92//8 91//8 94//8 93//8
f 91//8 90//8 95//8 94//8
f 10//7 89//7 101//7 16//7
f 89//7 88//7 100//7 101//7
f 88//7 87//7 99//7 100//7
f 229//5 270//5 107//5 19//5
f 270//5 276//5 106//5 107//5
f 276//5 282//5 105//5 106//5
f 8//2 86//2 92//2 12//2
f 86//2 85//2 91//2 92//2
f 85//2 84//2 90//2 91//2
f 6//2 83//2 89//2 10//2
f 83//2 82//2 88//2 89//2
f 82//2 81//2 87//2 88//2
f 5//5 81//5 126//5 53//5
f 81//5 82//5 127//5 126//5
f 82//5 83//5 128//5 127//5
f 3//12 78//12 216//12 212//12
f 200//2 203//2 79//2 80//2
f 203//2 206//2 78//2 79//2
f 76//2 77//2 204//2 201//2
f 201//2 204//2 205//2 202//2
f 202//2 205//2 206//2 203//2
f 75//2 76//2 201//2 198//2
f 198//2 201//2 202//2 199//2
f 199//2 202//2 203//2 200//2
f 200//13 80//13 213//13 217//13
f 144//2 198//2 199//2 145//2
f 145//2 199//2 200//2 146//2
f 50//2 182//2 194//2 66//2
f 182//2 181//2 193//2 194//2
f 181//2 180//2 192//2 193//2
f 47//9 179//9 191//9 63//9
f 179//9 178//9 190//9 191//9
f 178//9 177//9 189//9 190//9
f 61//6 59//6 186//6 192//6
f 192//6 186//6 187//6 193//6
f 193//6 187//6 188//6 194//6
f 62//4 64//4 195//4 189//4
f 189//4 195//4 196//4 190//4
f 190//4 196//4 197//4 191//4
f 48//2 183//2 195//2 64//2
f 183//2 184//2 196//2 195//2
f 184//2 185//2 197//2 196//2
f 3//4 149//4 179//4 47//4
f 149//4 148//4 178//4 179//4
f 148//4 147//4 177//4 178//4
f 8//6 152//6 182//6 50//6
f 152//6 151//6 181//6 182//6
f 151//6 150//6 180//6 181//6
f 43//9 174//9 186//9 59//9
f 174//9 175//9 187//9 186//9
f 175//9 176//9 188//9 187//9
f 34//9 167//9 173//9 40//9
f 167//9 166//9 172//9 173//9
f 166//9 165//9 171//9 172//9
f 31//9 162//9 168//9 37//9
f 162//9 163//9 169//9 168//9
f 163//9 164//9 170//9 169//9
f 11//4 161//4 167//4 34//4
f 161//4 160//4 166//4 167//4
f 160//4 159//4 165//4 166//4
f 9//6 156//6 162//6 31//6
f 156//6 157//6 163//6 162//6
f 157//6 158//6 164//6 163//6
f 5//2 150//2 156//2 9//2
f 150//2 151//2 157//2 156//2
f 151//2 152//2 158//2 157//2
f 1//6 144//6 174//6 43//6
f 144//6 145//6 175//6 174//6
f 145//6 146//6 176//6 175//6
f 6//4 153//4 183//4 48//4
f 153//4 154//4 184//4 183//4
f 154//4 155//4 185//4 184//4
f 7//2 155//2 161//2 11//2
f 155//2 154//2 160//2 161//2
f 154//2 153//2 159//2 160//2
f 146//1 200//1 217//1 209//1
f 204//2 147//2 148//2 205//2
f 205//2 148//2 149//2 206//2
f 218//2 211//2 212//2 216//2
f 209//2 217//2 213//2 210//2
f 214//2 215//2 221//2 219//2
f 207//2 208//2 220//2 222//2
f 78//14 206//14 218//14 216//14
f 4//14 146//14 209//14 210//14
f 144//14 1//14 214//14 219//14
f 204//14 77//14 207//14 222//14
f 149//13 3//13 212//13 211//13
f 147//12 204//12 222//12 220//12
f 75//13 198//13 221//13 215//13
f 198//12 144//12 219//12 221//12
f 1//1 75//1 215//1 214//1
f 2//13 147//13 220//13 208//13
f 80//12 4//12 210//12 213//12
f 206//1 149//1 211//1 218//1
f 100//5 99//5 277//5 271//5
f 224//15 278//15 338//15 284//15
f 272//5 278//5 279//5 273//5
f 273//16 279//16 339//16 333//16
f 274//5 280//5 281//5 275//5
f 251//17 257//17 317//17 311//17
f 101//5 100//5 271//5 265//5
f 277//18 223//18 283//18 337//18
f 266//5 272//5 273//5 267//5
f 278//15 272//15 332//15 338//15
f 268//5 274//5 275//5 269//5
f 256//19 250//19 310//19 316//19
f 16//5 101//5 265//5 234//5
f 229//20 235//20 295//20 289//20
f 233//5 266//5 267//5 232//5
f 271//18 277//18 337//18 331//18
f 231//5 268//5 269//5 230//5
f 249//21 255//21 315//21 309//21
f 97//3 98//3 259//3 253//3
f 236//22 230//22 290//22 296//22
f 254//3 260//3 261//3 255//3
f 254//23 248//23 308//23 314//23
f 256//3 262//3 263//3 257//3
f 231//24 237//24 297//24 291//24
f 96//3 97//3 253//3 247//3
f 247//25 253//25 313//25 307//25
f 248//3 254//3 255//3 249//3
f 238//26 232//26 292//26 298//26
f 250//3 256//3 257//3 251//3
f 264//27 258//27 318//27 324//27
f 17//3 96//3 247//3 241//3
f 233//28 239//28 299//28 293//28
f 242//3 248//3 249//3 243//3
f 257//17 263//17 323//17 317//17
f 244//3 250//3 251//3 245//3
f 240//29 234//29 294//29 300//29
f 98//3 18//3 240//3 259//3
f 262//19 256//19 316//19 322//19
f 260//3 239//3 238//3 261//3
f 246//30 228//30 288//30 306//30
f 262//3 237//3 236//3 263//3
f 255//21 261//21 321//21 315//21
f 15//6 17//6 241//6 223//6
f 227//31 245//31 305//31 287//31
f 224//6 242//6 243//6 225//6
f 260//23 254//23 314//23 320//23
f 226//6 244//6 245//6 227//6
f 244//32 226//32 286//32 304//32
f 18//4 16//4 234//4 240//4
f 253//33 259//33 319//33 313//33
f 239//4 233//4 232//4 238//4
f 225//34 243//34 303//34 285//34
f 237//4 231//4 230//4 236//4
f 270//35 229//35 289//35 330//35
f 99//5 15//5 223//5 277//5
f 242//36 224//36 284//36 302//36
f 278//5 224//5 225//5 279//5
f 230//37 269//37 329//37 290//37
f 280//5 226//5 227//5 281//5
f 223//38 241//38 301//38 283//38
f 331//5 337//5 338//5 332//5
f 333//5 339//5 340//5 334//5
f 335//5 341//5 342//5 336//5
f 325//5 331//5 332//5 326//5
f 327//5 333//5 334//5 328//5
f 329//5 335//5 336//5 330//5
f 294//5 325//5 326//5 293//5
f 292//5 327//5 328//5 291//5
f 290//5 329//5 330//5 289//5
f 313//3 319//3 320//3 314//3
f 315//3 321//3 322//3 316//3
f 317//3 323//3 324//3 318//3
f 307//3 313//3 314//3 308//3
f 309//3 315//3 316//3 310//3
f 311//3 317//3 318//3 312//3
f 301//3 307//3 308//3 302//3
f 303//3 309//3 310//3 304//3
f 305//3 311//3 312//3 306//3
f 319//3 300//3 299//3 320//3
f 321//3 298//3 297//3 322//3
f 323//3 296//3 295//3 324//3
f 283//6 301//6 302//6 284//6
f 285//6 303//6 304//6 286//6
f 287//6 305//6 306//6 288//6
f 300//4 294//4 293//4 299//4
f 298//4 292//4 291//4 297//4
f 296//4 290//4 289//4 295//4
f 337//5 283//5 284//5 338//5
f 339//5 285//5 286//5 340//5
f 341//5 287//5 288//5 342//5
f 258//27 252//27 312//27 318//27
f 280//39 274//39 334//39 340//39
f 279//16 225//16 285//16 339//16
f 241//33 247//33 307//33 301//33
f 275//37 281//37 341//37 335//37
f 226//39 280//39 340//39 286//39
f 248//23 242//23 302//23 308//23
f 282//35 276//35 336//35 342//35
f 281//37 227//37 287//37 341//37
f 243//21 249//21 309//21 303//21
f 265//18 271//18 331//18 325//18
f 228//35 282//35 342//35 288//35
f 250//19 244//19 304//19 310//19
f 272//15 266//15 326//15 332//15
f 245//17 251//17 311//17 305//17
f 267//16 273//16 333//16 327//16
f 252//27 246//27 306//27 312//27
f 274//39 268//39 328//39 334//39
f 259//25 240//25 300//25 319//25
f 269//37 275//37 335//37 329//37
f 239//23 260//23 320//23 299//23
f 276//35 270//35 330//35 336//35
f 261//21 238//21 298//21 321//21
f 234//18 265//18 325//18 294//18
f 237//19 262//19 322//19 297//19
f 266//15 233//15 293//15 326//15
f 263//17 236//17 296//17 323//17
f 232//16 267//16 327//16 292//16
f 235//27 264//27 324//27 295//27
f 268//39 231//39 291//39 328//39
